<svg width="42" height="95" viewBox="0 0 42 95" fill="none" xmlns="http://www.w3.org/2000/svg">
  <path d="M26.8085 74.4738C24.7359 74.5513 22.6897 73.9845 20.9514 72.8538C17.1833 70.1786 16.7529 64.6915 16.7336 64.4569C16.7026 63.549 17.3014 62.7399 18.1782 62.5045C18.3934 62.5045 23.7233 61.0201 27.4927 63.6953C31.2607 66.3511 31.6911 71.8382 31.7104 72.0718V72.0728C31.7414 72.9797 31.1426 73.7898 30.2648 74.0252C29.1341 74.3062 27.9742 74.4564 26.8085 74.4738ZM21.0674 65.9415C21.3882 67.3968 22.1769 68.7067 23.3134 69.6708C24.5953 70.4276 26.0933 70.7367 27.5699 70.5497C27.2541 69.0924 26.4644 67.7815 25.3249 66.8203C24.0459 66.0548 22.5451 65.7448 21.0674 65.9415Z" fill="#003B46"/>
  <path d="M40.0697 94.7422C39.3343 94.7402 38.6628 94.3255 38.3315 93.6686C37.941 92.907 29.0567 75.0011 37.2966 60.475C37.5437 60.0031 37.972 59.6533 38.4826 59.505C38.9942 59.3568 39.5436 59.4237 40.0038 59.6891C40.465 59.9556 40.7974 60.3984 40.9233 60.9158C41.0503 61.4323 40.9601 61.9787 40.6743 62.4274C33.4693 75.0214 41.7285 91.7167 41.807 91.7167C42.2895 92.6769 41.9058 93.8455 40.9485 94.3329C40.6985 94.549 40.3943 94.6904 40.0697 94.7427L40.0697 94.7422Z" fill="#003B46"/>
</svg>