<svg width="127" height="127" viewBox="0 0 127 127" fill="none" xmlns="http://www.w3.org/2000/svg">
<path d="M54.8875 50.359C53.9505 52.605 51.9779 53.913 50.4943 53.2686C49.0099 52.6243 48.5419 50.3201 49.4983 48.0946C50.4546 45.869 55.024 42.4902 55.024 42.4902C55.024 42.4902 55.8254 48.1333 54.8875 50.359Z" fill="#003B46"/>
<path d="M47.7604 38.8967C45.5145 40.5371 42.8199 40.6543 41.727 39.1699C40.633 37.6855 41.571 35.1275 43.7966 33.4882C46.0223 31.8478 52.5442 31.2422 52.5442 31.2422C52.5442 31.2422 50.0055 37.2564 47.7604 38.8967Z" fill="#003B46"/>
<path d="M62.1895 35.1093C60.8417 37.0617 58.6752 38.0385 57.3273 37.0617C55.9794 36.0849 55.9795 33.8011 57.3273 31.7704C58.6751 29.7396 63.8105 27.2988 63.8105 27.2988C63.8105 27.2988 63.4985 33.0785 62.1895 35.1093Z" fill="#003B46"/>
<path d="M66.0977 44.871C64.7499 46.8234 62.5833 47.8002 61.2355 46.8234C59.8877 45.8467 59.8877 43.5628 61.2355 41.5321C62.5832 39.5012 67.7186 37.0605 67.7186 37.0605C67.7186 37.0605 67.4057 42.8403 66.0977 44.871Z" fill="#003B46"/>
<path d="M115.731 45.5162C115.266 45.5162 114.816 45.3505 114.462 45.0482L105.851 37.6088L85.2118 39.0341L73.8666 43.6229L73.8676 43.622C73.2872 43.8652 72.6264 43.8148 72.0906 43.4854C71.5654 43.1501 71.2311 42.5843 71.1924 41.9632L70.2554 28.2945H70.2544C70.2128 27.6764 70.4666 27.0747 70.9385 26.6735C71.421 26.2714 72.0673 26.1261 72.6758 26.283L84.5277 29.2703L95.3651 28.5281L86.3831 20.7176V20.7185C85.5692 20.0112 85.482 18.7797 86.1884 17.9647L91.8701 11.3848C92.5707 10.5651 93.8041 10.4691 94.6239 11.1697C95.4427 11.8712 95.5396 13.1037 94.8381 13.9235L90.4256 19.1171L101.497 28.6852C102.105 29.2026 102.337 30.0379 102.083 30.7936C101.832 31.5436 101.153 32.0678 100.364 32.1221L84.489 33.216V33.215C84.2884 33.2441 84.0849 33.2441 83.8843 33.215L74.3355 30.7937L74.9014 39.0529L84.0201 35.3622L84.021 35.3632C84.2119 35.2789 84.4173 35.2324 84.6257 35.2266L106.457 33.6646C106.975 33.6249 107.489 33.7935 107.882 34.1326L115.985 41.1429L117.195 40.3813H117.196C118.098 39.8668 119.245 40.1488 119.806 41.0218C120.368 41.8948 120.148 43.0546 119.305 43.6623L116.864 45.2242C116.526 45.4354 116.131 45.5371 115.732 45.5168L115.731 45.5162Z" fill="#003B46"/>
<mask id="mask0_99_428" style="mask-type:luminance" maskUnits="userSpaceOnUse" x="1" y="1" width="125" height="125">
<path d="M1.01367 1.01367H125.982V125.982H1.01367V1.01367Z" fill="white"/>
</mask>
<g mask="url(#mask0_99_428)">
<path d="M63.4989 125.982C46.9264 125.982 31.0345 119.399 19.3168 107.681C7.59854 95.9628 1.01562 80.0709 1.01562 63.4989C1.01562 46.9264 7.59854 31.0345 19.3168 19.3168C31.035 7.59903 46.9269 1.01562 63.4989 1.01562C80.0706 1.01562 95.9632 7.59854 107.681 19.3168C119.399 31.035 125.982 46.9269 125.982 63.4989C125.982 74.4673 123.096 85.2417 117.612 94.7404C112.127 104.24 104.239 112.128 94.7399 117.612C85.2414 123.096 74.467 125.983 63.4984 125.983L63.4989 125.982ZM63.4989 4.9179C47.962 4.9179 33.0635 11.09 22.0775 22.0758C11.0918 33.0615 4.91963 47.962 4.91963 63.4971C4.91963 79.0331 11.0918 93.9325 22.0775 104.918C33.0633 115.904 47.9637 122.076 63.4989 122.076C79.0348 122.076 93.9342 115.904 104.92 104.918C115.906 93.9327 122.078 79.0323 122.078 63.4971C122.078 53.2139 119.371 43.1126 114.23 34.2078C109.088 25.3024 101.694 17.9074 92.7882 12.7663C83.8839 7.62508 73.7817 4.9179 63.4989 4.9179Z" fill="#003B46"/>
</g>
<path d="M16.6373 94.7422C16.2536 94.7471 15.8776 94.6308 15.5637 94.4108L9.70559 90.5061V90.5051C9.22113 90.2455 8.8694 89.7939 8.73471 89.261C8.601 88.7291 8.69692 88.1642 9.00116 87.7059C9.30445 87.2485 9.78601 86.9395 10.3296 86.8552C10.8722 86.7709 11.4255 86.9191 11.8537 87.264L17.7118 91.1688L17.7109 91.1698C18.4221 91.6465 18.7389 92.5321 18.4918 93.3518C18.2457 94.1725 17.4938 94.7364 16.6373 94.7422Z" fill="#003B46"/>
<path d="M34.2098 94.7415C33.8261 94.7464 33.4501 94.6301 33.1362 94.4101L28.3516 91.2272L23.568 94.4101C23.1398 94.7551 22.5875 94.9033 22.0439 94.819C21.5013 94.7347 21.0188 94.4257 20.7155 93.9683C20.4122 93.51 20.3153 92.9451 20.45 92.4122C20.5837 91.8803 20.9364 91.4287 21.4199 91.1691L27.278 87.2643V87.2633C27.9301 86.8341 28.7741 86.8341 29.4262 87.2633L35.2843 91.1681L35.2833 91.1691C35.9945 91.6458 36.3114 92.5314 36.0643 93.3511C35.8182 94.1718 35.0663 94.7357 34.2098 94.7415Z" fill="#003B46"/>
<path d="M51.7847 94.7416C51.401 94.7465 51.0251 94.6302 50.7112 94.4102L45.9266 91.2273L41.143 94.4102C40.2545 94.887 39.1489 94.6089 38.5928 93.7678C38.0357 92.9278 38.2101 91.8009 38.9949 91.1691L44.8531 87.2643V87.2633C45.5052 86.8341 46.3491 86.8341 47.0012 87.2633L52.8593 91.1681V91.1691C53.5696 91.6458 53.8864 92.5314 53.6403 93.3511C53.3932 94.1718 52.6413 94.7358 51.7847 94.7416Z" fill="#003B46"/>
<path d="M69.3569 94.7416C68.9732 94.7465 68.5973 94.6302 68.2833 94.4102L63.4998 91.2273L58.7162 94.4102H58.7152C57.8267 94.887 56.7221 94.6089 56.165 93.7678C55.6079 92.9278 55.7823 91.8009 56.5681 91.1691L62.4262 87.2643L62.4253 87.2633C63.0774 86.8341 63.9213 86.8341 64.5734 87.2633L70.4315 91.1681V91.1691C71.1418 91.6458 71.4586 92.5314 71.2125 93.3511C70.9654 94.1718 70.2135 94.7358 69.3569 94.7416Z" fill="#003B46"/>
<path d="M86.93 94.7415C86.5463 94.7464 86.1713 94.6301 85.8564 94.4101L81.0729 91.2272L76.2893 94.4101H76.2883C75.861 94.7551 75.3078 94.9033 74.7652 94.819C74.2216 94.7347 73.74 94.4257 73.4358 93.9683C73.1325 93.51 73.0366 92.9451 73.1703 92.4122C73.304 91.8803 73.6567 91.4287 74.1412 91.1691L79.9993 87.2643L79.9983 87.2633C80.6504 86.8341 81.4953 86.8341 82.1465 87.2633L88.0046 91.1681V91.1691C88.7148 91.6458 89.0316 92.5314 88.7855 93.3511C88.5385 94.1718 87.7866 94.7357 86.93 94.7415Z" fill="#003B46"/>
<path d="M104.505 94.7415C104.121 94.7464 103.746 94.6301 103.431 94.4101L98.6471 91.2272L93.8635 94.4101C93.4352 94.7551 92.882 94.9033 92.3393 94.819C91.7958 94.7347 91.3142 94.4257 91.0109 93.9683C90.7067 93.51 90.6108 92.9451 90.7445 92.4122C90.8792 91.8803 91.2309 91.4287 91.7154 91.1691L97.5735 87.2643V87.2633C98.2246 86.8341 99.0695 86.8341 99.7206 87.2633L105.579 91.1681V91.1691C106.29 91.6458 106.606 92.5314 106.36 93.3511C106.114 94.1718 105.361 94.7357 104.505 94.7415Z" fill="#003B46"/>
<path d="M110.363 94.7417C109.507 94.7359 108.755 94.172 108.508 93.3513C108.262 92.5315 108.578 91.6459 109.289 91.1692L115.148 87.2645V87.2635C116.036 86.7868 117.141 87.0649 117.698 87.9059C118.255 88.746 118.08 89.8728 117.295 90.5047L111.436 94.4094L111.437 94.4104C111.123 94.6303 110.748 94.7466 110.363 94.7417Z" fill="#003B46"/>
<path d="M51.0636 71.9567C47.8244 71.8705 44.6415 71.0914 41.7299 69.672C40.8995 69.2417 40.4896 68.2844 40.7532 67.3872C40.7532 67.0355 43.3307 58.7763 49.8719 55.9644C52.6877 54.7455 55.8134 54.4316 58.8152 55.0662C60.848 55.417 62.9216 55.4567 64.966 55.1834C65.6675 55.0788 66.37 55.3627 66.8012 55.9247C67.2324 56.4828 67.3293 57.2289 67.055 57.8781C66.8797 58.3073 62.7199 68.2273 56.296 70.9799C54.6343 71.6504 52.8553 71.9829 51.0636 71.9567ZM45.1076 66.8794C48.1568 68.2107 51.5858 68.3842 54.7534 67.3678C57.7019 66.0985 60.3771 62.2518 62.0174 59.2839C60.7684 59.2384 59.5233 59.1211 58.288 58.9322C55.9897 58.3954 53.5791 58.6154 51.4144 59.5571C48.5018 61.1627 46.2635 63.7612 45.1076 66.8794Z" fill="#003B46"/>
<path d="M39.678 58.9303C39.3951 58.9284 39.1161 58.8683 38.8574 58.755C38.6035 58.6377 32.5312 55.7871 31.0469 50.398C29.5624 45.0087 33.5264 39.5217 33.7027 39.3066C34.2511 38.514 35.2966 38.2398 36.1628 38.6623C36.4361 38.7795 42.5094 41.6301 43.9733 47.0388C45.4374 52.4475 41.5132 57.8958 41.3368 58.1302H41.3378C40.9531 58.6573 40.3301 58.9575 39.678 58.9303ZM36.0261 43.094C34.9244 44.9999 34.5233 47.2315 34.8934 49.4019C35.6395 51.4667 37.0832 53.2069 38.9745 54.3221C40.0636 52.4114 40.4502 50.181 40.0684 48.0153C39.3291 45.9573 37.901 44.2189 36.0261 43.094Z" fill="#003B46"/>
<path d="M26.8085 74.4738C24.7359 74.5513 22.6897 73.9845 20.9514 72.8538C17.1833 70.1786 16.7529 64.6915 16.7336 64.4569C16.7026 63.549 17.3014 62.7399 18.1782 62.5045C18.3934 62.5045 23.7233 61.0201 27.4927 63.6953C31.2607 66.3511 31.6911 71.8382 31.7104 72.0718V72.0728C31.7414 72.9797 31.1426 73.7898 30.2648 74.0252C29.1341 74.3062 27.9742 74.4564 26.8085 74.4738ZM21.0674 65.9415C21.3882 67.3968 22.1769 68.7067 23.3134 69.6708C24.5953 70.4276 26.0933 70.7367 27.5699 70.5497C27.2541 69.0924 26.4644 67.7815 25.3249 66.8203C24.0459 66.0548 22.5451 65.7448 21.0674 65.9415Z" fill="#003B46"/>
<path d="M40.0697 94.7422C39.3343 94.7402 38.6628 94.3255 38.3315 93.6686C37.941 92.907 29.0567 75.0011 37.2966 60.475C37.5437 60.0031 37.972 59.6533 38.4826 59.505C38.9942 59.3568 39.5436 59.4237 40.0038 59.6891C40.465 59.9556 40.7974 60.3984 40.9233 60.9158C41.0503 61.4323 40.9601 61.9787 40.6743 62.4274C33.4693 75.0214 41.7285 91.7167 41.807 91.7167C42.2895 92.6769 41.9058 93.8455 40.9485 94.3329C40.6985 94.549 40.3943 94.6904 40.0697 94.7427L40.0697 94.7422Z" fill="#003B46"/>
</svg>